Coordinates
version=1
nRows=12
nColumns=33
inDegrees=yes

Units are S.I. units (second, meters, Newtons, ...)
Angles are in degrees.

endheader
time	ground_thorax_rot_x	ground_thorax_rot_y	ground_thorax_rot_z	ground_thorax_tx	ground_thorax_ty	ground_thorax_tz	clav_prot_r	clav_elev_r	scapula_abduction_r	scapula_elevation_r	scapula_upward_rot_r	scapula_winging_r	shoulder_elv_r	plane_of_elev_r	axial_rot_r	elbow_flexion_r	pro_sup_r	wrist_flex_r	wrist_dev_r	clav_prot_l	clav_elev_l	scapula_abduction_l	scapula_elevation_l	scapula_upward_rot_l	scapula_winging_l	shoulder_elv_l	plane_of_elev_l	axial_rot_l	elbow_flexion_l	pro_sup_l	wrist_flex_l	wrist_dev_l
      4.69000000	    -40.35533369	      2.68872859	     -6.01498216	   -198.13570751	    893.12136942	     -5.03225010	     13.19565439	    -45.00000000	     42.94317008	    -45.00000000	    -45.00000000	   1345.79526762	   -463.54527156	    147.22989201	    179.99999979	     10.27776150	     67.14853132	     30.23532932	     13.39907996	     15.07929370	     38.90740082	    -39.30297391	    -45.00000000	    -45.00000000	   -996.18107695	  -1534.14279570	    135.87454362	   -179.99999979	   1092.22664415	   -312.59718326	      7.82678914	    -24.40261679
      4.70000000	    -40.35724513	      2.80480382	     -5.97408493	   -196.38183785	    894.24622216	     -4.94839358	     13.04848411	    -45.00000000	     43.02554226	    -45.00000000	    -45.00000000	   1345.77815585	   -463.23958413	    147.10485441	    179.99999979	     10.51814928	     67.30321904	     30.28125944	     13.31624487	     15.05996736	     38.98080886	    -39.56165805	    -45.00000000	    -45.00000000	   -996.02411021	  -1533.95857409	    135.88301348	   -179.99999979	   1092.31435861	   -312.45938756	      7.67754654	    -24.35447924
      4.71000000	    -40.30971232	      2.87956713	     -5.94696892	   -194.51242293	    895.45512332	     -4.85109030	     13.32076380	    -45.00000000	     43.27213831	    -45.00000000	    -45.00000000	   1345.53984619	   -462.99815209	    146.78581238	    179.99999979	     10.69761442	     67.44954926	     30.15037374	     13.16529183	     14.99600476	     38.98803388	    -39.85790432	    -45.00000000	    -45.00000000	   -995.78696472	  -1533.92266532	    135.80091554	   -179.99999979	   1092.44534280	   -312.29377692	      7.54499093	    -24.31757098
      4.72000000	    -40.35707148	      3.06344725	     -5.97697361	   -192.53607033	    896.71133093	     -4.73562787	     13.56752660	    -45.00000000	     43.26558841	    -45.00000000	    -45.00000000	   1345.40776232	   -462.75146449	    146.37919138	    179.99999979	     10.87191488	     67.60613127	     29.96853850	     12.98516897	     15.31877184	     39.12766206	    -40.28076184	    -45.00000000	    -44.87173105	   -995.35346539	  -1533.79756474	    135.64281032	   -179.99999979	   1092.43033930	   -312.05731516	      7.44413196	    -24.24559468
      4.73000000	    -40.37443066	      3.21241829	     -6.03773191	   -190.43793219	    897.98810411	     -4.59957931	     13.48197477	    -45.00000000	     43.37279977	    -45.00000000	    -45.00000000	   1345.35958072	   -462.40847203	    146.09415775	    179.99999979	     11.09311744	     67.70608591	     29.91636170	     12.85859297	     15.14808590	     39.24230060	    -40.39822014	    -45.00000000	    -44.17941866	   -995.15186957	  -1533.73938042	    135.67661929	   -179.99999979	   1092.49896847	   -311.84622745	      7.32943108	    -24.23158041
      4.74000000	    -40.38748699	      3.34172683	     -6.05536472	   -188.21952062	    899.24681970	     -4.44429008	     13.48835085	    -45.00000000	     43.50215886	    -45.00000000	    -45.00000000	   1345.29964705	   -462.05766528	    145.85063429	    179.99999979	     11.34527767	     67.77405935	     29.86362897	     12.71865290	     15.09203762	     39.35678867	    -40.56184738	    -45.00000000	    -43.60658034	   -994.94881721	  -1533.64975230	    135.69025077	   -179.99999979	   1092.55942952	   -311.65001663	      7.20867265	    -24.20346680
      4.75000000	    -40.40851813	      3.48122446	     -6.07683501	   -185.87544497	    900.45304332	     -4.27347992	     13.50638639	    -45.00000000	     43.64814182	    -45.00000000	    -45.00000000	   1345.25249219	   -461.70263514	    145.62304018	    179.99999979	     11.63329004	     67.81560910	     29.78814940	     12.55035574	     15.04266910	     39.51314194	    -40.74216107	    -45.00000000	    -42.99302023	   -994.73003448	  -1533.57805871	    135.70073088	   -179.99999979	   1092.62497526	   -311.47388411	      7.11190430	    -24.19248650
      4.76000000	    -40.46484110	      3.54447913	     -6.11440991	   -183.40418573	    901.57219842	     -4.09265155	     13.53320973	    -45.00000000	     43.74740908	    -45.00000000	    -45.00000000	   1345.25142283	   -461.35341417	    145.33697459	    179.99999979	     11.91985526	     67.83937633	     29.71071276	     12.38218932	     14.95422923	     39.63982555	    -40.87339539	    -45.00000000	    -42.33542676	   -994.51131861	  -1533.50010874	    135.71481905	   -179.99999979	   1092.66509482	   -311.33769691	      7.02032210	    -24.17374968
      4.77000000	    -40.49188643	      3.61325759	     -6.04044901	   -180.80543193	    902.57203616	     -3.90811690	     13.46330705	    -45.00000000	     43.88104493	    -45.00000000	    -45.00000000	   1345.18605207	   -460.99217056	    145.08796946	    179.99999979	     12.13604773	     67.84907950	     29.63183122	     12.23886636	     14.87199975	     39.71333492	    -41.07921456	    -45.00000000	    -41.76954007	   -994.33452216	  -1533.40796842	    135.75314998	   -179.99999979	   1092.70984033	   -311.25899723	      6.89438366	    -24.11703840
      4.78000000	    -40.54855943	      3.71350492	     -6.05397759	   -178.07460731	    903.42476731	     -3.72519589	     13.45791029	    -45.00000000	     43.98660493	    -45.00000000	    -45.00000000	   1345.17986432	   -460.62972130	    144.80099512	    179.99999979	     12.41685673	     67.83682274	     29.50051691	     12.04234325	     14.77421598	     39.87572868	    -41.24751410	    -45.00000000	    -40.96869966	   -994.11964696	  -1533.37209925	    135.77879044	   -179.99999979	   1092.73116163	   -311.23312453	      6.86897572	    -24.13249996
      4.79000000	    -40.56898734	      3.73720766	     -5.96605710	   -175.21285312	    904.10278044	     -3.54830423	     13.39187379	    -45.00000000	     44.11149891	    -45.00000000	    -45.00000000	   1345.13331668	   -460.26520451	    144.56847337	    179.99999979	     12.69831381	     67.80142762	     29.41105289	     11.87606045	     14.60409897	     39.95469139	    -41.38500974	    -45.00000000	    -40.24299166	   -993.99825059	  -1533.34927200	    135.84900396	   -179.99999979	   1092.78506915	   -311.29631720	      6.79404025	    -24.10615142
      4.80000000	    -40.67106535	      3.76143699	     -5.86294490	   -172.22452994	    904.58052317	     -3.38019958	     13.38304977	    -45.00000000	     44.23795543	    -45.00000000	    -45.00000000	   1345.22219216	   -459.93067423	    144.38018227	    179.99999979	     12.95151073	     67.74684822	     29.29238544	     11.69800622	     14.92494423	     40.13980636	    -41.65766770	    -45.00000000	    -39.91207471	   -993.74685112	  -1533.19054768	    135.74411220	   -179.99999979	   1092.78639448	   -311.44075129	      6.75430426	    -24.06286003
